<mxfile host="app.diagrams.net" modified="2023-11-22T04:59:46.194Z" agent="Mozilla/5.0 (Windows NT 10.0; Win64; x64) AppleWebKit/537.36 (KHTML, like Gecko) Chrome/119.0.0.0 Safari/537.36 Edg/119.0.0.0" etag="z287yw0O8WMFcyyrTkma" version="22.1.3" type="device" pages="2">
  <diagram name="第 1 页" id="Mc2CY6ZJeno_9lJmdHQ4">
    <mxGraphModel dx="1386" dy="1928" grid="1" gridSize="10" guides="1" tooltips="1" connect="1" arrows="1" fold="1" page="1" pageScale="1" pageWidth="827" pageHeight="1169" math="0" shadow="0">
      <root>
        <mxCell id="0" />
        <mxCell id="1" parent="0" />
        <mxCell id="X3J57zC9v2Py7VQlVrYl-13" value="" style="group" parent="1" vertex="1" connectable="0">
          <mxGeometry x="220" y="-340" width="251" height="300" as="geometry" />
        </mxCell>
        <mxCell id="-fzor9kKpS3qVCWxcFZ6-102" value="&lt;p style=&quot;margin:0px;margin-top:6px;text-align:center;&quot;&gt;&lt;b&gt;ExerciseModule&lt;/b&gt;&lt;/p&gt;&lt;hr&gt;&lt;p style=&quot;margin:0px;margin-left:8px;&quot;&gt;&lt;br&gt;&lt;br&gt;&lt;/p&gt;" style="align=left;overflow=fill;html=1;dropTarget=0;whiteSpace=wrap;" parent="X3J57zC9v2Py7VQlVrYl-13" vertex="1">
          <mxGeometry width="220" height="300" as="geometry" />
        </mxCell>
        <mxCell id="-fzor9kKpS3qVCWxcFZ6-103" value="" style="shape=component;jettyWidth=8;jettyHeight=4;" parent="-fzor9kKpS3qVCWxcFZ6-102" vertex="1">
          <mxGeometry x="1" width="20" height="20" relative="1" as="geometry">
            <mxPoint x="-24" y="4" as="offset" />
          </mxGeometry>
        </mxCell>
        <mxCell id="-fzor9kKpS3qVCWxcFZ6-86" value="&lt;b&gt;ExerciseController&lt;/b&gt;" style="html=1;dropTarget=0;whiteSpace=wrap;" parent="X3J57zC9v2Py7VQlVrYl-13" vertex="1">
          <mxGeometry x="30" y="60" width="160" height="70" as="geometry" />
        </mxCell>
        <mxCell id="-fzor9kKpS3qVCWxcFZ6-87" value="" style="shape=module;jettyWidth=8;jettyHeight=4;" parent="-fzor9kKpS3qVCWxcFZ6-86" vertex="1">
          <mxGeometry x="1" width="20" height="20" relative="1" as="geometry">
            <mxPoint x="-27" y="7" as="offset" />
          </mxGeometry>
        </mxCell>
        <mxCell id="-fzor9kKpS3qVCWxcFZ6-92" value="&lt;b&gt;ExerciseModel&lt;/b&gt;" style="html=1;dropTarget=0;whiteSpace=wrap;" parent="X3J57zC9v2Py7VQlVrYl-13" vertex="1">
          <mxGeometry x="30" y="190" width="160" height="70" as="geometry" />
        </mxCell>
        <mxCell id="-fzor9kKpS3qVCWxcFZ6-93" value="" style="shape=module;jettyWidth=8;jettyHeight=4;" parent="-fzor9kKpS3qVCWxcFZ6-92" vertex="1">
          <mxGeometry x="1" width="20" height="20" relative="1" as="geometry">
            <mxPoint x="-27" y="7" as="offset" />
          </mxGeometry>
        </mxCell>
        <mxCell id="-fzor9kKpS3qVCWxcFZ6-94" value="" style="group" parent="X3J57zC9v2Py7VQlVrYl-13" vertex="1" connectable="0">
          <mxGeometry x="100" y="150" width="20" height="20" as="geometry" />
        </mxCell>
        <mxCell id="-fzor9kKpS3qVCWxcFZ6-95" value="" style="shape=providedRequiredInterface;html=1;verticalLabelPosition=bottom;sketch=0;rotation=-90;" parent="-fzor9kKpS3qVCWxcFZ6-94" vertex="1">
          <mxGeometry width="20" height="20" as="geometry" />
        </mxCell>
        <mxCell id="-fzor9kKpS3qVCWxcFZ6-96" style="edgeStyle=orthogonalEdgeStyle;rounded=0;orthogonalLoop=1;jettySize=auto;html=1;exitX=0;exitY=0.5;exitDx=0;exitDy=0;exitPerimeter=0;endArrow=none;endFill=0;" parent="X3J57zC9v2Py7VQlVrYl-13" source="-fzor9kKpS3qVCWxcFZ6-95" edge="1">
          <mxGeometry relative="1" as="geometry">
            <mxPoint x="110" y="190" as="targetPoint" />
          </mxGeometry>
        </mxCell>
        <mxCell id="-fzor9kKpS3qVCWxcFZ6-97" style="rounded=0;orthogonalLoop=1;jettySize=auto;html=1;entryX=0.5;entryY=1;entryDx=0;entryDy=0;endArrow=none;endFill=0;" parent="X3J57zC9v2Py7VQlVrYl-13" target="-fzor9kKpS3qVCWxcFZ6-86" edge="1">
          <mxGeometry relative="1" as="geometry">
            <mxPoint x="110" y="150" as="sourcePoint" />
          </mxGeometry>
        </mxCell>
        <mxCell id="-fzor9kKpS3qVCWxcFZ6-131" value="" style="ellipse;whiteSpace=wrap;html=1;aspect=fixed;" parent="X3J57zC9v2Py7VQlVrYl-13" vertex="1">
          <mxGeometry x="236" y="88.75" width="15" height="15" as="geometry" />
        </mxCell>
        <mxCell id="-fzor9kKpS3qVCWxcFZ6-132" value="" style="rounded=0;orthogonalLoop=1;jettySize=auto;html=1;endArrow=none;endFill=0;entryX=1;entryY=0.5;entryDx=0;entryDy=0;" parent="X3J57zC9v2Py7VQlVrYl-13" edge="1">
          <mxGeometry relative="1" as="geometry">
            <mxPoint x="236" y="95.75" as="sourcePoint" />
            <mxPoint x="190" y="95.75" as="targetPoint" />
          </mxGeometry>
        </mxCell>
        <mxCell id="X3J57zC9v2Py7VQlVrYl-40" value="" style="group;movable=0;resizable=0;rotatable=0;deletable=0;editable=0;locked=1;connectable=0;" parent="1" vertex="1" connectable="0">
          <mxGeometry x="220" y="-680" width="251" height="300" as="geometry" />
        </mxCell>
        <mxCell id="X3J57zC9v2Py7VQlVrYl-28" value="&lt;p style=&quot;margin:0px;margin-top:6px;text-align:center;&quot;&gt;&lt;b&gt;MealModule&lt;/b&gt;&lt;/p&gt;&lt;hr&gt;&lt;p style=&quot;margin:0px;margin-left:8px;&quot;&gt;&lt;br&gt;&lt;br&gt;&lt;/p&gt;" style="align=left;overflow=fill;html=1;dropTarget=0;whiteSpace=wrap;" parent="X3J57zC9v2Py7VQlVrYl-40" vertex="1">
          <mxGeometry width="220" height="300" as="geometry" />
        </mxCell>
        <mxCell id="X3J57zC9v2Py7VQlVrYl-29" value="" style="shape=component;jettyWidth=8;jettyHeight=4;" parent="X3J57zC9v2Py7VQlVrYl-28" vertex="1">
          <mxGeometry x="1" width="20" height="20" relative="1" as="geometry">
            <mxPoint x="-24" y="4" as="offset" />
          </mxGeometry>
        </mxCell>
        <mxCell id="X3J57zC9v2Py7VQlVrYl-34" value="" style="group" parent="X3J57zC9v2Py7VQlVrYl-40" vertex="1" connectable="0">
          <mxGeometry x="100" y="150" width="20" height="20" as="geometry" />
        </mxCell>
        <mxCell id="X3J57zC9v2Py7VQlVrYl-35" value="" style="shape=providedRequiredInterface;html=1;verticalLabelPosition=bottom;sketch=0;rotation=-90;" parent="X3J57zC9v2Py7VQlVrYl-34" vertex="1">
          <mxGeometry width="20" height="20" as="geometry" />
        </mxCell>
        <mxCell id="X3J57zC9v2Py7VQlVrYl-36" style="edgeStyle=orthogonalEdgeStyle;rounded=0;orthogonalLoop=1;jettySize=auto;html=1;exitX=0;exitY=0.5;exitDx=0;exitDy=0;exitPerimeter=0;endArrow=none;endFill=0;" parent="X3J57zC9v2Py7VQlVrYl-40" source="X3J57zC9v2Py7VQlVrYl-35" edge="1">
          <mxGeometry relative="1" as="geometry">
            <mxPoint x="110" y="190" as="targetPoint" />
          </mxGeometry>
        </mxCell>
        <mxCell id="X3J57zC9v2Py7VQlVrYl-37" style="rounded=0;orthogonalLoop=1;jettySize=auto;html=1;entryX=0.5;entryY=1;entryDx=0;entryDy=0;endArrow=none;endFill=0;" parent="X3J57zC9v2Py7VQlVrYl-40" target="X3J57zC9v2Py7VQlVrYl-30" edge="1">
          <mxGeometry relative="1" as="geometry">
            <mxPoint x="110" y="150" as="sourcePoint" />
          </mxGeometry>
        </mxCell>
        <mxCell id="X3J57zC9v2Py7VQlVrYl-38" value="" style="ellipse;whiteSpace=wrap;html=1;aspect=fixed;" parent="X3J57zC9v2Py7VQlVrYl-40" vertex="1">
          <mxGeometry x="236" y="88.75" width="15" height="15" as="geometry" />
        </mxCell>
        <mxCell id="X3J57zC9v2Py7VQlVrYl-39" value="" style="rounded=0;orthogonalLoop=1;jettySize=auto;html=1;endArrow=none;endFill=0;entryX=1;entryY=0.5;entryDx=0;entryDy=0;" parent="X3J57zC9v2Py7VQlVrYl-40" edge="1">
          <mxGeometry relative="1" as="geometry">
            <mxPoint x="236" y="95.75" as="sourcePoint" />
            <mxPoint x="190" y="95.75" as="targetPoint" />
          </mxGeometry>
        </mxCell>
        <mxCell id="X3J57zC9v2Py7VQlVrYl-30" value="&lt;b&gt;MealController&lt;/b&gt;" style="html=1;dropTarget=0;whiteSpace=wrap;" parent="X3J57zC9v2Py7VQlVrYl-40" vertex="1">
          <mxGeometry x="30" y="60" width="160" height="70" as="geometry" />
        </mxCell>
        <mxCell id="X3J57zC9v2Py7VQlVrYl-31" value="" style="shape=module;jettyWidth=8;jettyHeight=4;" parent="X3J57zC9v2Py7VQlVrYl-30" vertex="1">
          <mxGeometry x="1" width="20" height="20" relative="1" as="geometry">
            <mxPoint x="-27" y="7" as="offset" />
          </mxGeometry>
        </mxCell>
        <mxCell id="X3J57zC9v2Py7VQlVrYl-32" value="&lt;b&gt;MealModel&lt;/b&gt;" style="html=1;dropTarget=0;whiteSpace=wrap;" parent="X3J57zC9v2Py7VQlVrYl-40" vertex="1">
          <mxGeometry x="30" y="190" width="160" height="70" as="geometry" />
        </mxCell>
        <mxCell id="X3J57zC9v2Py7VQlVrYl-33" value="" style="shape=module;jettyWidth=8;jettyHeight=4;" parent="X3J57zC9v2Py7VQlVrYl-32" vertex="1">
          <mxGeometry x="1" width="20" height="20" relative="1" as="geometry">
            <mxPoint x="-27" y="7" as="offset" />
          </mxGeometry>
        </mxCell>
        <mxCell id="X3J57zC9v2Py7VQlVrYl-41" value="" style="group" parent="1" vertex="1" connectable="0">
          <mxGeometry x="220" y="-1010" width="251" height="300" as="geometry" />
        </mxCell>
        <mxCell id="X3J57zC9v2Py7VQlVrYl-42" value="&lt;p style=&quot;margin:0px;margin-top:6px;text-align:center;&quot;&gt;&lt;b&gt;UserModule&lt;/b&gt;&lt;/p&gt;&lt;hr&gt;&lt;p style=&quot;margin:0px;margin-left:8px;&quot;&gt;&lt;br&gt;&lt;br&gt;&lt;/p&gt;" style="align=left;overflow=fill;html=1;dropTarget=0;whiteSpace=wrap;" parent="X3J57zC9v2Py7VQlVrYl-41" vertex="1">
          <mxGeometry width="220" height="300" as="geometry" />
        </mxCell>
        <mxCell id="X3J57zC9v2Py7VQlVrYl-43" value="" style="shape=component;jettyWidth=8;jettyHeight=4;" parent="X3J57zC9v2Py7VQlVrYl-42" vertex="1">
          <mxGeometry x="1" width="20" height="20" relative="1" as="geometry">
            <mxPoint x="-24" y="4" as="offset" />
          </mxGeometry>
        </mxCell>
        <mxCell id="X3J57zC9v2Py7VQlVrYl-44" value="" style="group" parent="X3J57zC9v2Py7VQlVrYl-41" vertex="1" connectable="0">
          <mxGeometry x="100" y="150" width="20" height="20" as="geometry" />
        </mxCell>
        <mxCell id="X3J57zC9v2Py7VQlVrYl-45" value="" style="shape=providedRequiredInterface;html=1;verticalLabelPosition=bottom;sketch=0;rotation=-90;" parent="X3J57zC9v2Py7VQlVrYl-44" vertex="1">
          <mxGeometry width="20" height="20" as="geometry" />
        </mxCell>
        <mxCell id="X3J57zC9v2Py7VQlVrYl-46" style="edgeStyle=orthogonalEdgeStyle;rounded=0;orthogonalLoop=1;jettySize=auto;html=1;exitX=0;exitY=0.5;exitDx=0;exitDy=0;exitPerimeter=0;endArrow=none;endFill=0;" parent="X3J57zC9v2Py7VQlVrYl-41" source="X3J57zC9v2Py7VQlVrYl-45" edge="1">
          <mxGeometry relative="1" as="geometry">
            <mxPoint x="110" y="190" as="targetPoint" />
          </mxGeometry>
        </mxCell>
        <mxCell id="X3J57zC9v2Py7VQlVrYl-47" style="rounded=0;orthogonalLoop=1;jettySize=auto;html=1;entryX=0.5;entryY=1;entryDx=0;entryDy=0;endArrow=none;endFill=0;" parent="X3J57zC9v2Py7VQlVrYl-41" target="X3J57zC9v2Py7VQlVrYl-50" edge="1">
          <mxGeometry relative="1" as="geometry">
            <mxPoint x="110" y="150" as="sourcePoint" />
          </mxGeometry>
        </mxCell>
        <mxCell id="X3J57zC9v2Py7VQlVrYl-48" value="" style="ellipse;whiteSpace=wrap;html=1;aspect=fixed;" parent="X3J57zC9v2Py7VQlVrYl-41" vertex="1">
          <mxGeometry x="236" y="88.75" width="15" height="15" as="geometry" />
        </mxCell>
        <mxCell id="X3J57zC9v2Py7VQlVrYl-49" value="" style="rounded=0;orthogonalLoop=1;jettySize=auto;html=1;endArrow=none;endFill=0;entryX=1;entryY=0.5;entryDx=0;entryDy=0;" parent="X3J57zC9v2Py7VQlVrYl-41" edge="1">
          <mxGeometry relative="1" as="geometry">
            <mxPoint x="236" y="95.75" as="sourcePoint" />
            <mxPoint x="190" y="95.75" as="targetPoint" />
          </mxGeometry>
        </mxCell>
        <mxCell id="X3J57zC9v2Py7VQlVrYl-50" value="&lt;b&gt;UserController&lt;/b&gt;" style="html=1;dropTarget=0;whiteSpace=wrap;" parent="X3J57zC9v2Py7VQlVrYl-41" vertex="1">
          <mxGeometry x="30" y="60" width="160" height="70" as="geometry" />
        </mxCell>
        <mxCell id="X3J57zC9v2Py7VQlVrYl-51" value="" style="shape=module;jettyWidth=8;jettyHeight=4;" parent="X3J57zC9v2Py7VQlVrYl-50" vertex="1">
          <mxGeometry x="1" width="20" height="20" relative="1" as="geometry">
            <mxPoint x="-27" y="7" as="offset" />
          </mxGeometry>
        </mxCell>
        <mxCell id="X3J57zC9v2Py7VQlVrYl-52" value="&lt;b&gt;UserModel&lt;/b&gt;" style="html=1;dropTarget=0;whiteSpace=wrap;" parent="X3J57zC9v2Py7VQlVrYl-41" vertex="1">
          <mxGeometry x="30" y="190" width="160" height="70" as="geometry" />
        </mxCell>
        <mxCell id="X3J57zC9v2Py7VQlVrYl-53" value="" style="shape=module;jettyWidth=8;jettyHeight=4;" parent="X3J57zC9v2Py7VQlVrYl-52" vertex="1">
          <mxGeometry x="1" width="20" height="20" relative="1" as="geometry">
            <mxPoint x="-27" y="7" as="offset" />
          </mxGeometry>
        </mxCell>
        <mxCell id="X3J57zC9v2Py7VQlVrYl-65" value="" style="endArrow=none;html=1;rounded=0;entryX=0;entryY=0.5;entryDx=0;entryDy=0;" parent="1" target="X3J57zC9v2Py7VQlVrYl-56" edge="1">
          <mxGeometry width="50" height="50" relative="1" as="geometry">
            <mxPoint x="650" y="-510" as="sourcePoint" />
            <mxPoint x="700" y="-570" as="targetPoint" />
          </mxGeometry>
        </mxCell>
        <mxCell id="X3J57zC9v2Py7VQlVrYl-66" value="" style="shape=requiredInterface;html=1;verticalLabelPosition=bottom;sketch=0;" parent="1" vertex="1">
          <mxGeometry x="640" y="-520" width="10" height="20" as="geometry" />
        </mxCell>
        <mxCell id="X3J57zC9v2Py7VQlVrYl-70" style="rounded=0;orthogonalLoop=1;jettySize=auto;html=1;exitX=1;exitY=0.5;exitDx=0;exitDy=0;entryX=0;entryY=0.5;entryDx=0;entryDy=0;entryPerimeter=0;dashed=1;dashPattern=8 8;endArrow=open;endFill=0;" parent="1" source="X3J57zC9v2Py7VQlVrYl-38" target="X3J57zC9v2Py7VQlVrYl-66" edge="1">
          <mxGeometry relative="1" as="geometry" />
        </mxCell>
        <mxCell id="X3J57zC9v2Py7VQlVrYl-71" style="rounded=0;orthogonalLoop=1;jettySize=auto;html=1;exitX=1;exitY=0.5;exitDx=0;exitDy=0;dashed=1;dashPattern=8 8;endArrow=open;endFill=0;" parent="1" source="-fzor9kKpS3qVCWxcFZ6-131" edge="1">
          <mxGeometry relative="1" as="geometry">
            <mxPoint x="481" y="-574" as="sourcePoint" />
            <mxPoint x="640" y="-510" as="targetPoint" />
          </mxGeometry>
        </mxCell>
        <mxCell id="X3J57zC9v2Py7VQlVrYl-72" style="rounded=0;orthogonalLoop=1;jettySize=auto;html=1;dashed=1;dashPattern=8 8;endArrow=open;endFill=0;exitX=1;exitY=0.5;exitDx=0;exitDy=0;" parent="1" source="X3J57zC9v2Py7VQlVrYl-48" edge="1">
          <mxGeometry relative="1" as="geometry">
            <mxPoint x="510" y="-740" as="sourcePoint" />
            <mxPoint x="640" y="-510" as="targetPoint" />
          </mxGeometry>
        </mxCell>
        <mxCell id="X3J57zC9v2Py7VQlVrYl-54" value="&lt;b&gt;Session&lt;/b&gt;" style="html=1;dropTarget=0;whiteSpace=wrap;" parent="1" vertex="1">
          <mxGeometry x="720" y="-710" width="170" height="80" as="geometry" />
        </mxCell>
        <mxCell id="X3J57zC9v2Py7VQlVrYl-55" value="" style="shape=module;jettyWidth=8;jettyHeight=4;" parent="X3J57zC9v2Py7VQlVrYl-54" vertex="1">
          <mxGeometry x="1" width="20" height="20" relative="1" as="geometry">
            <mxPoint x="-27" y="7" as="offset" />
          </mxGeometry>
        </mxCell>
        <mxCell id="X3J57zC9v2Py7VQlVrYl-56" value="&lt;b&gt;GUI&lt;/b&gt;" style="html=1;dropTarget=0;whiteSpace=wrap;" parent="1" vertex="1">
          <mxGeometry x="720" y="-550" width="170" height="80" as="geometry" />
        </mxCell>
        <mxCell id="X3J57zC9v2Py7VQlVrYl-57" value="" style="shape=module;jettyWidth=8;jettyHeight=4;" parent="X3J57zC9v2Py7VQlVrYl-56" vertex="1">
          <mxGeometry x="1" width="20" height="20" relative="1" as="geometry">
            <mxPoint x="-27" y="7" as="offset" />
          </mxGeometry>
        </mxCell>
        <mxCell id="X3J57zC9v2Py7VQlVrYl-62" style="rounded=0;orthogonalLoop=1;jettySize=auto;html=1;endArrow=open;endFill=0;entryX=0.5;entryY=1;entryDx=0;entryDy=0;exitX=0.5;exitY=0;exitDx=0;exitDy=0;" parent="1" source="X3J57zC9v2Py7VQlVrYl-56" target="X3J57zC9v2Py7VQlVrYl-54" edge="1">
          <mxGeometry relative="1" as="geometry">
            <mxPoint x="805" y="-591.25" as="sourcePoint" />
            <mxPoint x="1020" y="-560" as="targetPoint" />
          </mxGeometry>
        </mxCell>
      </root>
    </mxGraphModel>
  </diagram>
  <diagram id="VqfDxF7gd_bdChJpFEO_" name="Page-2">
    <mxGraphModel dx="1980" dy="3284" grid="1" gridSize="10" guides="1" tooltips="1" connect="1" arrows="1" fold="1" page="1" pageScale="1" pageWidth="850" pageHeight="1100" math="0" shadow="0">
      <root>
        <mxCell id="0" />
        <mxCell id="1" parent="0" />
        <mxCell id="w95D6fE_Xo_ZqqT8Y349-1" value="&lt;b&gt;MainFrame&lt;/b&gt;" style="html=1;dropTarget=0;whiteSpace=wrap;" vertex="1" parent="1">
          <mxGeometry y="-890" width="170" height="80" as="geometry" />
        </mxCell>
        <mxCell id="w95D6fE_Xo_ZqqT8Y349-2" value="" style="shape=module;jettyWidth=8;jettyHeight=4;" vertex="1" parent="w95D6fE_Xo_ZqqT8Y349-1">
          <mxGeometry x="1" width="20" height="20" relative="1" as="geometry">
            <mxPoint x="-27" y="7" as="offset" />
          </mxGeometry>
        </mxCell>
        <mxCell id="MNQ1sqPUqFNWWSK-w_gH-36" value="&lt;b&gt;UserBackend&lt;/b&gt;" style="html=1;dropTarget=0;whiteSpace=wrap;" vertex="1" parent="1">
          <mxGeometry x="700" y="-1260" width="170" height="80" as="geometry" />
        </mxCell>
        <mxCell id="MNQ1sqPUqFNWWSK-w_gH-37" value="" style="shape=module;jettyWidth=8;jettyHeight=4;" vertex="1" parent="MNQ1sqPUqFNWWSK-w_gH-36">
          <mxGeometry x="1" width="20" height="20" relative="1" as="geometry">
            <mxPoint x="-27" y="7" as="offset" />
          </mxGeometry>
        </mxCell>
        <mxCell id="MNQ1sqPUqFNWWSK-w_gH-38" value="&lt;b style=&quot;border-color: var(--border-color);&quot;&gt;MealBackend&lt;/b&gt;" style="html=1;dropTarget=0;whiteSpace=wrap;" vertex="1" parent="1">
          <mxGeometry x="680" y="-630" width="170" height="80" as="geometry" />
        </mxCell>
        <mxCell id="MNQ1sqPUqFNWWSK-w_gH-39" value="" style="shape=module;jettyWidth=8;jettyHeight=4;" vertex="1" parent="MNQ1sqPUqFNWWSK-w_gH-38">
          <mxGeometry x="1" width="20" height="20" relative="1" as="geometry">
            <mxPoint x="-27" y="7" as="offset" />
          </mxGeometry>
        </mxCell>
        <mxCell id="MNQ1sqPUqFNWWSK-w_gH-40" value="&lt;b style=&quot;border-color: var(--border-color);&quot;&gt;ExerciseBackend&lt;/b&gt;" style="html=1;dropTarget=0;whiteSpace=wrap;" vertex="1" parent="1">
          <mxGeometry x="680" y="-850" width="170" height="80" as="geometry" />
        </mxCell>
        <mxCell id="MNQ1sqPUqFNWWSK-w_gH-41" value="" style="shape=module;jettyWidth=8;jettyHeight=4;" vertex="1" parent="MNQ1sqPUqFNWWSK-w_gH-40">
          <mxGeometry x="1" width="20" height="20" relative="1" as="geometry">
            <mxPoint x="-27" y="7" as="offset" />
          </mxGeometry>
        </mxCell>
        <mxCell id="MNQ1sqPUqFNWWSK-w_gH-42" value="&lt;b style=&quot;border-color: var(--border-color);&quot;&gt;Database&lt;/b&gt;" style="html=1;dropTarget=0;whiteSpace=wrap;" vertex="1" parent="1">
          <mxGeometry x="950" y="-880" width="170" height="80" as="geometry" />
        </mxCell>
        <mxCell id="MNQ1sqPUqFNWWSK-w_gH-43" value="" style="shape=module;jettyWidth=8;jettyHeight=4;" vertex="1" parent="MNQ1sqPUqFNWWSK-w_gH-42">
          <mxGeometry x="1" width="20" height="20" relative="1" as="geometry">
            <mxPoint x="-27" y="7" as="offset" />
          </mxGeometry>
        </mxCell>
        <mxCell id="_OHjRWJevrkuzVZ8xUaO-1" value="" style="ellipse;whiteSpace=wrap;html=1;aspect=fixed;" vertex="1" parent="1">
          <mxGeometry x="216" y="-840" width="15" height="15" as="geometry" />
        </mxCell>
        <mxCell id="_OHjRWJevrkuzVZ8xUaO-2" value="" style="rounded=0;orthogonalLoop=1;jettySize=auto;html=1;endArrow=none;endFill=0;entryX=1;entryY=0.5;entryDx=0;entryDy=0;" edge="1" parent="1" source="_OHjRWJevrkuzVZ8xUaO-1">
          <mxGeometry relative="1" as="geometry">
            <mxPoint x="216" y="-833" as="sourcePoint" />
            <mxPoint x="170" y="-833" as="targetPoint" />
          </mxGeometry>
        </mxCell>
        <mxCell id="_OHjRWJevrkuzVZ8xUaO-3" value="" style="ellipse;whiteSpace=wrap;html=1;aspect=fixed;" vertex="1" parent="1">
          <mxGeometry x="225" y="-877.5" width="15" height="15" as="geometry" />
        </mxCell>
        <mxCell id="FzAoJsj29OSM4B1aR2w1-1" value="" style="shape=requiredInterface;html=1;verticalLabelPosition=bottom;sketch=0;rotation=-180;" vertex="1" parent="1">
          <mxGeometry x="216" y="-880" width="9" height="20" as="geometry" />
        </mxCell>
        <mxCell id="FzAoJsj29OSM4B1aR2w1-2" value="" style="rounded=0;orthogonalLoop=1;jettySize=auto;html=1;endArrow=none;endFill=0;entryX=1;entryY=0.5;entryDx=0;entryDy=0;" edge="1" parent="1">
          <mxGeometry relative="1" as="geometry">
            <mxPoint x="216" y="-869.5" as="sourcePoint" />
            <mxPoint x="170" y="-870.5" as="targetPoint" />
          </mxGeometry>
        </mxCell>
        <mxCell id="FzAoJsj29OSM4B1aR2w1-19" value="" style="group" vertex="1" connectable="0" parent="1">
          <mxGeometry x="284.8261613074234" y="-942.5" width="280.6738386925766" height="80" as="geometry" />
        </mxCell>
        <mxCell id="FzAoJsj29OSM4B1aR2w1-9" value="" style="group" vertex="1" connectable="0" parent="FzAoJsj29OSM4B1aR2w1-19">
          <mxGeometry x="225.67383869257662" y="30" width="55" height="20" as="geometry" />
        </mxCell>
        <mxCell id="FzAoJsj29OSM4B1aR2w1-5" value="" style="shape=requiredInterface;html=1;verticalLabelPosition=bottom;sketch=0;rotation=-180;" vertex="1" parent="FzAoJsj29OSM4B1aR2w1-9">
          <mxGeometry x="46" width="9" height="20" as="geometry" />
        </mxCell>
        <mxCell id="FzAoJsj29OSM4B1aR2w1-6" value="" style="rounded=0;orthogonalLoop=1;jettySize=auto;html=1;endArrow=none;endFill=0;entryX=1;entryY=0.5;entryDx=0;entryDy=0;" edge="1" parent="FzAoJsj29OSM4B1aR2w1-9">
          <mxGeometry relative="1" as="geometry">
            <mxPoint x="46" y="10.5" as="sourcePoint" />
            <mxPoint y="9.5" as="targetPoint" />
          </mxGeometry>
        </mxCell>
        <mxCell id="MNQ1sqPUqFNWWSK-w_gH-26" value="&lt;b&gt;ExerciseRecord&lt;/b&gt;" style="html=1;dropTarget=0;whiteSpace=wrap;" vertex="1" parent="FzAoJsj29OSM4B1aR2w1-19">
          <mxGeometry x="55.67383869257662" width="170" height="80" as="geometry" />
        </mxCell>
        <mxCell id="MNQ1sqPUqFNWWSK-w_gH-27" value="" style="shape=module;jettyWidth=8;jettyHeight=4;" vertex="1" parent="MNQ1sqPUqFNWWSK-w_gH-26">
          <mxGeometry x="1" width="20" height="20" relative="1" as="geometry">
            <mxPoint x="-27" y="7" as="offset" />
          </mxGeometry>
        </mxCell>
        <mxCell id="FzAoJsj29OSM4B1aR2w1-7" value="" style="endArrow=none;html=1;rounded=0;entryX=-0.009;entryY=0.669;entryDx=0;entryDy=0;entryPerimeter=0;edgeStyle=orthogonalEdgeStyle;exitX=1;exitY=0.5;exitDx=0;exitDy=0;" edge="1" parent="1" source="_OHjRWJevrkuzVZ8xUaO-3" target="MNQ1sqPUqFNWWSK-w_gH-26">
          <mxGeometry width="50" height="50" relative="1" as="geometry">
            <mxPoint x="-14.826161307423376" y="72.5" as="sourcePoint" />
            <mxPoint x="55.17383869257662" y="72.5" as="targetPoint" />
          </mxGeometry>
        </mxCell>
        <mxCell id="FzAoJsj29OSM4B1aR2w1-20" value="" style="group" vertex="1" connectable="0" parent="1">
          <mxGeometry x="284.9961613074234" y="-1040" width="280.6738386925766" height="80" as="geometry" />
        </mxCell>
        <mxCell id="FzAoJsj29OSM4B1aR2w1-22" value="" style="group" vertex="1" connectable="0" parent="FzAoJsj29OSM4B1aR2w1-20">
          <mxGeometry x="225.67383869257662" y="30" width="55" height="20" as="geometry" />
        </mxCell>
        <mxCell id="FzAoJsj29OSM4B1aR2w1-23" value="" style="shape=requiredInterface;html=1;verticalLabelPosition=bottom;sketch=0;rotation=-180;" vertex="1" parent="FzAoJsj29OSM4B1aR2w1-22">
          <mxGeometry x="46" width="9" height="20" as="geometry" />
        </mxCell>
        <mxCell id="FzAoJsj29OSM4B1aR2w1-24" value="" style="rounded=0;orthogonalLoop=1;jettySize=auto;html=1;endArrow=none;endFill=0;entryX=1;entryY=0.5;entryDx=0;entryDy=0;" edge="1" parent="FzAoJsj29OSM4B1aR2w1-22">
          <mxGeometry relative="1" as="geometry">
            <mxPoint x="46" y="10.5" as="sourcePoint" />
            <mxPoint y="9.5" as="targetPoint" />
          </mxGeometry>
        </mxCell>
        <mxCell id="FzAoJsj29OSM4B1aR2w1-30" style="edgeStyle=orthogonalEdgeStyle;rounded=0;orthogonalLoop=1;jettySize=auto;html=1;exitX=0;exitY=0.5;exitDx=0;exitDy=0;endArrow=none;endFill=0;" edge="1" parent="FzAoJsj29OSM4B1aR2w1-20" source="FzAoJsj29OSM4B1aR2w1-25">
          <mxGeometry relative="1" as="geometry">
            <mxPoint x="5.003838692576608" y="150" as="targetPoint" />
          </mxGeometry>
        </mxCell>
        <mxCell id="FzAoJsj29OSM4B1aR2w1-25" value="&lt;b&gt;ExerciseVisualization&lt;/b&gt;" style="html=1;dropTarget=0;whiteSpace=wrap;" vertex="1" parent="FzAoJsj29OSM4B1aR2w1-20">
          <mxGeometry x="55.67383869257662" width="170" height="80" as="geometry" />
        </mxCell>
        <mxCell id="FzAoJsj29OSM4B1aR2w1-26" value="" style="shape=module;jettyWidth=8;jettyHeight=4;" vertex="1" parent="FzAoJsj29OSM4B1aR2w1-25">
          <mxGeometry x="1" width="20" height="20" relative="1" as="geometry">
            <mxPoint x="-27" y="7" as="offset" />
          </mxGeometry>
        </mxCell>
        <mxCell id="FzAoJsj29OSM4B1aR2w1-31" value="" style="group" vertex="1" connectable="0" parent="1">
          <mxGeometry x="284.9961613074234" y="-1150" width="280.6738386925766" height="80" as="geometry" />
        </mxCell>
        <mxCell id="FzAoJsj29OSM4B1aR2w1-32" value="" style="group" vertex="1" connectable="0" parent="FzAoJsj29OSM4B1aR2w1-31">
          <mxGeometry x="225.67383869257662" y="30" width="55" height="20" as="geometry" />
        </mxCell>
        <mxCell id="FzAoJsj29OSM4B1aR2w1-33" value="" style="shape=requiredInterface;html=1;verticalLabelPosition=bottom;sketch=0;rotation=-180;" vertex="1" parent="FzAoJsj29OSM4B1aR2w1-32">
          <mxGeometry x="46" width="9" height="20" as="geometry" />
        </mxCell>
        <mxCell id="FzAoJsj29OSM4B1aR2w1-34" value="" style="rounded=0;orthogonalLoop=1;jettySize=auto;html=1;endArrow=none;endFill=0;entryX=1;entryY=0.5;entryDx=0;entryDy=0;" edge="1" parent="FzAoJsj29OSM4B1aR2w1-32">
          <mxGeometry relative="1" as="geometry">
            <mxPoint x="46" y="10.5" as="sourcePoint" />
            <mxPoint y="9.5" as="targetPoint" />
          </mxGeometry>
        </mxCell>
        <mxCell id="FzAoJsj29OSM4B1aR2w1-35" style="edgeStyle=orthogonalEdgeStyle;rounded=0;orthogonalLoop=1;jettySize=auto;html=1;exitX=0;exitY=0.5;exitDx=0;exitDy=0;endArrow=none;endFill=0;" edge="1" parent="FzAoJsj29OSM4B1aR2w1-31" source="FzAoJsj29OSM4B1aR2w1-36">
          <mxGeometry relative="1" as="geometry">
            <mxPoint x="5.003838692576608" y="150" as="targetPoint" />
          </mxGeometry>
        </mxCell>
        <mxCell id="FzAoJsj29OSM4B1aR2w1-36" value="&lt;b&gt;UserProfile&lt;/b&gt;" style="html=1;dropTarget=0;whiteSpace=wrap;" vertex="1" parent="FzAoJsj29OSM4B1aR2w1-31">
          <mxGeometry x="55.67383869257662" width="170" height="80" as="geometry" />
        </mxCell>
        <mxCell id="FzAoJsj29OSM4B1aR2w1-37" value="" style="shape=module;jettyWidth=8;jettyHeight=4;" vertex="1" parent="FzAoJsj29OSM4B1aR2w1-36">
          <mxGeometry x="1" width="20" height="20" relative="1" as="geometry">
            <mxPoint x="-27" y="7" as="offset" />
          </mxGeometry>
        </mxCell>
        <mxCell id="FzAoJsj29OSM4B1aR2w1-38" value="" style="group" vertex="1" connectable="0" parent="1">
          <mxGeometry x="284.9961613074234" y="-1260" width="280.6738386925766" height="80" as="geometry" />
        </mxCell>
        <mxCell id="FzAoJsj29OSM4B1aR2w1-39" value="" style="group" vertex="1" connectable="0" parent="FzAoJsj29OSM4B1aR2w1-38">
          <mxGeometry x="225.67383869257662" y="30" width="55" height="20" as="geometry" />
        </mxCell>
        <mxCell id="FzAoJsj29OSM4B1aR2w1-40" value="" style="shape=requiredInterface;html=1;verticalLabelPosition=bottom;sketch=0;rotation=-180;" vertex="1" parent="FzAoJsj29OSM4B1aR2w1-39">
          <mxGeometry x="46" width="9" height="20" as="geometry" />
        </mxCell>
        <mxCell id="FzAoJsj29OSM4B1aR2w1-41" value="" style="rounded=0;orthogonalLoop=1;jettySize=auto;html=1;endArrow=none;endFill=0;entryX=1;entryY=0.5;entryDx=0;entryDy=0;" edge="1" parent="FzAoJsj29OSM4B1aR2w1-39">
          <mxGeometry relative="1" as="geometry">
            <mxPoint x="46" y="10.5" as="sourcePoint" />
            <mxPoint y="9.5" as="targetPoint" />
          </mxGeometry>
        </mxCell>
        <mxCell id="FzAoJsj29OSM4B1aR2w1-42" style="edgeStyle=orthogonalEdgeStyle;rounded=0;orthogonalLoop=1;jettySize=auto;html=1;exitX=0;exitY=0.5;exitDx=0;exitDy=0;endArrow=none;endFill=0;" edge="1" parent="FzAoJsj29OSM4B1aR2w1-38" source="FzAoJsj29OSM4B1aR2w1-43">
          <mxGeometry relative="1" as="geometry">
            <mxPoint x="5.003838692576608" y="150" as="targetPoint" />
          </mxGeometry>
        </mxCell>
        <mxCell id="FzAoJsj29OSM4B1aR2w1-43" value="&lt;b&gt;UserRegister&lt;/b&gt;" style="html=1;dropTarget=0;whiteSpace=wrap;" vertex="1" parent="FzAoJsj29OSM4B1aR2w1-38">
          <mxGeometry x="55.67383869257662" width="170" height="80" as="geometry" />
        </mxCell>
        <mxCell id="FzAoJsj29OSM4B1aR2w1-44" value="" style="shape=module;jettyWidth=8;jettyHeight=4;" vertex="1" parent="FzAoJsj29OSM4B1aR2w1-43">
          <mxGeometry x="1" width="20" height="20" relative="1" as="geometry">
            <mxPoint x="-27" y="7" as="offset" />
          </mxGeometry>
        </mxCell>
        <mxCell id="FzAoJsj29OSM4B1aR2w1-45" value="" style="group" vertex="1" connectable="0" parent="1">
          <mxGeometry x="284.9961613074234" y="-1370" width="280.6738386925766" height="80" as="geometry" />
        </mxCell>
        <mxCell id="FzAoJsj29OSM4B1aR2w1-46" value="" style="group" vertex="1" connectable="0" parent="FzAoJsj29OSM4B1aR2w1-45">
          <mxGeometry x="225.67383869257662" y="30" width="55" height="20" as="geometry" />
        </mxCell>
        <mxCell id="FzAoJsj29OSM4B1aR2w1-47" value="" style="shape=requiredInterface;html=1;verticalLabelPosition=bottom;sketch=0;rotation=-180;" vertex="1" parent="FzAoJsj29OSM4B1aR2w1-46">
          <mxGeometry x="46" width="9" height="20" as="geometry" />
        </mxCell>
        <mxCell id="FzAoJsj29OSM4B1aR2w1-48" value="" style="rounded=0;orthogonalLoop=1;jettySize=auto;html=1;endArrow=none;endFill=0;entryX=1;entryY=0.5;entryDx=0;entryDy=0;" edge="1" parent="FzAoJsj29OSM4B1aR2w1-46">
          <mxGeometry relative="1" as="geometry">
            <mxPoint x="46" y="10.5" as="sourcePoint" />
            <mxPoint y="9.5" as="targetPoint" />
          </mxGeometry>
        </mxCell>
        <mxCell id="FzAoJsj29OSM4B1aR2w1-49" style="edgeStyle=orthogonalEdgeStyle;rounded=0;orthogonalLoop=1;jettySize=auto;html=1;exitX=0;exitY=0.5;exitDx=0;exitDy=0;endArrow=none;endFill=0;" edge="1" parent="FzAoJsj29OSM4B1aR2w1-45" source="FzAoJsj29OSM4B1aR2w1-50">
          <mxGeometry relative="1" as="geometry">
            <mxPoint x="5.003838692576608" y="150" as="targetPoint" />
          </mxGeometry>
        </mxCell>
        <mxCell id="FzAoJsj29OSM4B1aR2w1-153" style="edgeStyle=orthogonalEdgeStyle;rounded=0;orthogonalLoop=1;jettySize=auto;html=1;exitX=0;exitY=0.75;exitDx=0;exitDy=0;endArrow=none;endFill=0;" edge="1" parent="FzAoJsj29OSM4B1aR2w1-45" source="FzAoJsj29OSM4B1aR2w1-50">
          <mxGeometry relative="1" as="geometry">
            <mxPoint x="-14.996161307423392" y="540" as="targetPoint" />
          </mxGeometry>
        </mxCell>
        <mxCell id="FzAoJsj29OSM4B1aR2w1-50" value="&lt;b&gt;Login&lt;/b&gt;" style="html=1;dropTarget=0;whiteSpace=wrap;" vertex="1" parent="FzAoJsj29OSM4B1aR2w1-45">
          <mxGeometry x="55.67383869257662" width="170" height="80" as="geometry" />
        </mxCell>
        <mxCell id="FzAoJsj29OSM4B1aR2w1-51" value="" style="shape=module;jettyWidth=8;jettyHeight=4;" vertex="1" parent="FzAoJsj29OSM4B1aR2w1-50">
          <mxGeometry x="1" width="20" height="20" relative="1" as="geometry">
            <mxPoint x="-27" y="7" as="offset" />
          </mxGeometry>
        </mxCell>
        <mxCell id="FzAoJsj29OSM4B1aR2w1-52" value="" style="group" vertex="1" connectable="0" parent="1">
          <mxGeometry x="284.9961613074234" y="-840" width="280.6738386925767" height="80" as="geometry" />
        </mxCell>
        <mxCell id="FzAoJsj29OSM4B1aR2w1-53" value="" style="group" vertex="1" connectable="0" parent="FzAoJsj29OSM4B1aR2w1-52">
          <mxGeometry x="225.67383869257662" y="30" width="55" height="20" as="geometry" />
        </mxCell>
        <mxCell id="FzAoJsj29OSM4B1aR2w1-54" value="" style="shape=requiredInterface;html=1;verticalLabelPosition=bottom;sketch=0;rotation=-180;" vertex="1" parent="FzAoJsj29OSM4B1aR2w1-53">
          <mxGeometry x="46" width="9" height="20" as="geometry" />
        </mxCell>
        <mxCell id="FzAoJsj29OSM4B1aR2w1-55" value="" style="rounded=0;orthogonalLoop=1;jettySize=auto;html=1;endArrow=none;endFill=0;entryX=1;entryY=0.5;entryDx=0;entryDy=0;" edge="1" parent="FzAoJsj29OSM4B1aR2w1-53">
          <mxGeometry relative="1" as="geometry">
            <mxPoint x="46" y="10.5" as="sourcePoint" />
            <mxPoint y="9.5" as="targetPoint" />
          </mxGeometry>
        </mxCell>
        <mxCell id="FzAoJsj29OSM4B1aR2w1-58" style="edgeStyle=orthogonalEdgeStyle;rounded=0;orthogonalLoop=1;jettySize=auto;html=1;endArrow=none;endFill=0;" edge="1" parent="FzAoJsj29OSM4B1aR2w1-52" source="FzAoJsj29OSM4B1aR2w1-56">
          <mxGeometry relative="1" as="geometry">
            <mxPoint x="5.003838692576608" y="-30" as="targetPoint" />
          </mxGeometry>
        </mxCell>
        <mxCell id="FzAoJsj29OSM4B1aR2w1-56" value="&lt;b&gt;Home&lt;/b&gt;" style="html=1;dropTarget=0;whiteSpace=wrap;" vertex="1" parent="FzAoJsj29OSM4B1aR2w1-52">
          <mxGeometry x="55.67383869257662" width="170" height="80" as="geometry" />
        </mxCell>
        <mxCell id="FzAoJsj29OSM4B1aR2w1-57" value="" style="shape=module;jettyWidth=8;jettyHeight=4;" vertex="1" parent="FzAoJsj29OSM4B1aR2w1-56">
          <mxGeometry x="1" width="20" height="20" relative="1" as="geometry">
            <mxPoint x="-27" y="7" as="offset" />
          </mxGeometry>
        </mxCell>
        <mxCell id="FzAoJsj29OSM4B1aR2w1-59" value="" style="group" vertex="1" connectable="0" parent="1">
          <mxGeometry x="284.9961613074234" y="-740" width="280.6738386925766" height="80" as="geometry" />
        </mxCell>
        <mxCell id="FzAoJsj29OSM4B1aR2w1-60" value="" style="group" vertex="1" connectable="0" parent="FzAoJsj29OSM4B1aR2w1-59">
          <mxGeometry x="225.67383869257662" y="30" width="55" height="20" as="geometry" />
        </mxCell>
        <mxCell id="FzAoJsj29OSM4B1aR2w1-61" value="" style="shape=requiredInterface;html=1;verticalLabelPosition=bottom;sketch=0;rotation=-180;" vertex="1" parent="FzAoJsj29OSM4B1aR2w1-60">
          <mxGeometry x="46" width="9" height="20" as="geometry" />
        </mxCell>
        <mxCell id="FzAoJsj29OSM4B1aR2w1-62" value="" style="rounded=0;orthogonalLoop=1;jettySize=auto;html=1;endArrow=none;endFill=0;entryX=1;entryY=0.5;entryDx=0;entryDy=0;" edge="1" parent="FzAoJsj29OSM4B1aR2w1-60">
          <mxGeometry relative="1" as="geometry">
            <mxPoint x="46" y="10.5" as="sourcePoint" />
            <mxPoint y="9.5" as="targetPoint" />
          </mxGeometry>
        </mxCell>
        <mxCell id="FzAoJsj29OSM4B1aR2w1-63" style="edgeStyle=orthogonalEdgeStyle;rounded=0;orthogonalLoop=1;jettySize=auto;html=1;endArrow=none;endFill=0;" edge="1" parent="FzAoJsj29OSM4B1aR2w1-59" source="FzAoJsj29OSM4B1aR2w1-64">
          <mxGeometry relative="1" as="geometry">
            <mxPoint x="5.003838692576608" y="-60" as="targetPoint" />
          </mxGeometry>
        </mxCell>
        <mxCell id="FzAoJsj29OSM4B1aR2w1-154" style="edgeStyle=orthogonalEdgeStyle;rounded=0;orthogonalLoop=1;jettySize=auto;html=1;exitX=0;exitY=0.25;exitDx=0;exitDy=0;endArrow=none;endFill=0;" edge="1" parent="FzAoJsj29OSM4B1aR2w1-59" source="FzAoJsj29OSM4B1aR2w1-64">
          <mxGeometry relative="1" as="geometry">
            <mxPoint x="-14.996161307423392" y="-90" as="targetPoint" />
          </mxGeometry>
        </mxCell>
        <mxCell id="FzAoJsj29OSM4B1aR2w1-64" value="&lt;b&gt;MealVisualization&lt;/b&gt;" style="html=1;dropTarget=0;whiteSpace=wrap;" vertex="1" parent="FzAoJsj29OSM4B1aR2w1-59">
          <mxGeometry x="55.67383869257662" width="170" height="80" as="geometry" />
        </mxCell>
        <mxCell id="FzAoJsj29OSM4B1aR2w1-65" value="" style="shape=module;jettyWidth=8;jettyHeight=4;" vertex="1" parent="FzAoJsj29OSM4B1aR2w1-64">
          <mxGeometry x="1" width="20" height="20" relative="1" as="geometry">
            <mxPoint x="-27" y="7" as="offset" />
          </mxGeometry>
        </mxCell>
        <mxCell id="FzAoJsj29OSM4B1aR2w1-66" value="" style="group" vertex="1" connectable="0" parent="1">
          <mxGeometry x="284.9961613074234" y="-640" width="280.6738386925766" height="80" as="geometry" />
        </mxCell>
        <mxCell id="FzAoJsj29OSM4B1aR2w1-67" value="" style="group" vertex="1" connectable="0" parent="FzAoJsj29OSM4B1aR2w1-66">
          <mxGeometry x="225.67383869257662" y="30" width="55" height="20" as="geometry" />
        </mxCell>
        <mxCell id="FzAoJsj29OSM4B1aR2w1-68" value="" style="shape=requiredInterface;html=1;verticalLabelPosition=bottom;sketch=0;rotation=-180;" vertex="1" parent="FzAoJsj29OSM4B1aR2w1-67">
          <mxGeometry x="46" width="9" height="20" as="geometry" />
        </mxCell>
        <mxCell id="FzAoJsj29OSM4B1aR2w1-69" value="" style="rounded=0;orthogonalLoop=1;jettySize=auto;html=1;endArrow=none;endFill=0;entryX=1;entryY=0.5;entryDx=0;entryDy=0;" edge="1" parent="FzAoJsj29OSM4B1aR2w1-67">
          <mxGeometry relative="1" as="geometry">
            <mxPoint x="46" y="10.5" as="sourcePoint" />
            <mxPoint y="9.5" as="targetPoint" />
          </mxGeometry>
        </mxCell>
        <mxCell id="FzAoJsj29OSM4B1aR2w1-70" style="edgeStyle=orthogonalEdgeStyle;rounded=0;orthogonalLoop=1;jettySize=auto;html=1;endArrow=none;endFill=0;" edge="1" parent="FzAoJsj29OSM4B1aR2w1-66" source="FzAoJsj29OSM4B1aR2w1-71">
          <mxGeometry relative="1" as="geometry">
            <mxPoint x="5.003838692576608" y="-60" as="targetPoint" />
          </mxGeometry>
        </mxCell>
        <mxCell id="FzAoJsj29OSM4B1aR2w1-155" style="edgeStyle=orthogonalEdgeStyle;rounded=0;orthogonalLoop=1;jettySize=auto;html=1;exitX=0;exitY=0.25;exitDx=0;exitDy=0;endArrow=none;endFill=0;" edge="1" parent="FzAoJsj29OSM4B1aR2w1-66" source="FzAoJsj29OSM4B1aR2w1-71">
          <mxGeometry relative="1" as="geometry">
            <mxPoint x="-14.996161307423392" y="-80" as="targetPoint" />
          </mxGeometry>
        </mxCell>
        <mxCell id="FzAoJsj29OSM4B1aR2w1-71" value="&lt;b&gt;MealRecord&lt;/b&gt;" style="html=1;dropTarget=0;whiteSpace=wrap;" vertex="1" parent="FzAoJsj29OSM4B1aR2w1-66">
          <mxGeometry x="55.67383869257662" width="170" height="80" as="geometry" />
        </mxCell>
        <mxCell id="FzAoJsj29OSM4B1aR2w1-72" value="" style="shape=module;jettyWidth=8;jettyHeight=4;" vertex="1" parent="FzAoJsj29OSM4B1aR2w1-71">
          <mxGeometry x="1" width="20" height="20" relative="1" as="geometry">
            <mxPoint x="-27" y="7" as="offset" />
          </mxGeometry>
        </mxCell>
        <mxCell id="FzAoJsj29OSM4B1aR2w1-73" value="" style="group" vertex="1" connectable="0" parent="1">
          <mxGeometry x="284.9961613074234" y="-540" width="280.6738386925766" height="80" as="geometry" />
        </mxCell>
        <mxCell id="FzAoJsj29OSM4B1aR2w1-74" value="" style="group" vertex="1" connectable="0" parent="FzAoJsj29OSM4B1aR2w1-73">
          <mxGeometry x="225.67383869257662" y="30" width="55" height="20" as="geometry" />
        </mxCell>
        <mxCell id="FzAoJsj29OSM4B1aR2w1-75" value="" style="shape=requiredInterface;html=1;verticalLabelPosition=bottom;sketch=0;rotation=-180;" vertex="1" parent="FzAoJsj29OSM4B1aR2w1-74">
          <mxGeometry x="46" width="9" height="20" as="geometry" />
        </mxCell>
        <mxCell id="FzAoJsj29OSM4B1aR2w1-76" value="" style="rounded=0;orthogonalLoop=1;jettySize=auto;html=1;endArrow=none;endFill=0;entryX=1;entryY=0.5;entryDx=0;entryDy=0;" edge="1" parent="FzAoJsj29OSM4B1aR2w1-74">
          <mxGeometry relative="1" as="geometry">
            <mxPoint x="46" y="10.5" as="sourcePoint" />
            <mxPoint y="9.5" as="targetPoint" />
          </mxGeometry>
        </mxCell>
        <mxCell id="FzAoJsj29OSM4B1aR2w1-77" style="edgeStyle=orthogonalEdgeStyle;rounded=0;orthogonalLoop=1;jettySize=auto;html=1;endArrow=none;endFill=0;" edge="1" parent="FzAoJsj29OSM4B1aR2w1-73" source="FzAoJsj29OSM4B1aR2w1-78">
          <mxGeometry relative="1" as="geometry">
            <mxPoint x="5.003838692576608" y="-60" as="targetPoint" />
          </mxGeometry>
        </mxCell>
        <mxCell id="FzAoJsj29OSM4B1aR2w1-156" style="edgeStyle=orthogonalEdgeStyle;rounded=0;orthogonalLoop=1;jettySize=auto;html=1;exitX=0;exitY=0.25;exitDx=0;exitDy=0;endArrow=none;endFill=0;" edge="1" parent="FzAoJsj29OSM4B1aR2w1-73" source="FzAoJsj29OSM4B1aR2w1-78">
          <mxGeometry relative="1" as="geometry">
            <mxPoint x="-14.996161307423392" y="-80" as="targetPoint" />
          </mxGeometry>
        </mxCell>
        <mxCell id="FzAoJsj29OSM4B1aR2w1-78" value="&lt;b&gt;MealDetail&lt;/b&gt;" style="html=1;dropTarget=0;whiteSpace=wrap;" vertex="1" parent="FzAoJsj29OSM4B1aR2w1-73">
          <mxGeometry x="55.67383869257662" width="170" height="80" as="geometry" />
        </mxCell>
        <mxCell id="FzAoJsj29OSM4B1aR2w1-79" value="" style="shape=module;jettyWidth=8;jettyHeight=4;" vertex="1" parent="FzAoJsj29OSM4B1aR2w1-78">
          <mxGeometry x="1" width="20" height="20" relative="1" as="geometry">
            <mxPoint x="-27" y="7" as="offset" />
          </mxGeometry>
        </mxCell>
        <mxCell id="FzAoJsj29OSM4B1aR2w1-80" value="" style="group" vertex="1" connectable="0" parent="1">
          <mxGeometry x="284.9961613074234" y="-440" width="280.6738386925766" height="80" as="geometry" />
        </mxCell>
        <mxCell id="FzAoJsj29OSM4B1aR2w1-81" value="" style="group" vertex="1" connectable="0" parent="FzAoJsj29OSM4B1aR2w1-80">
          <mxGeometry x="225.67383869257662" y="50" width="55" height="20" as="geometry" />
        </mxCell>
        <mxCell id="FzAoJsj29OSM4B1aR2w1-82" value="" style="shape=requiredInterface;html=1;verticalLabelPosition=bottom;sketch=0;rotation=-180;" vertex="1" parent="FzAoJsj29OSM4B1aR2w1-81">
          <mxGeometry x="46" width="9" height="20" as="geometry" />
        </mxCell>
        <mxCell id="FzAoJsj29OSM4B1aR2w1-83" value="" style="rounded=0;orthogonalLoop=1;jettySize=auto;html=1;endArrow=none;endFill=0;entryX=1;entryY=0.5;entryDx=0;entryDy=0;" edge="1" parent="FzAoJsj29OSM4B1aR2w1-81">
          <mxGeometry relative="1" as="geometry">
            <mxPoint x="46" y="10.5" as="sourcePoint" />
            <mxPoint y="9.5" as="targetPoint" />
          </mxGeometry>
        </mxCell>
        <mxCell id="FzAoJsj29OSM4B1aR2w1-84" style="edgeStyle=orthogonalEdgeStyle;rounded=0;orthogonalLoop=1;jettySize=auto;html=1;endArrow=none;endFill=0;" edge="1" parent="FzAoJsj29OSM4B1aR2w1-80" source="FzAoJsj29OSM4B1aR2w1-85">
          <mxGeometry relative="1" as="geometry">
            <mxPoint x="5.003838692576608" y="-60" as="targetPoint" />
          </mxGeometry>
        </mxCell>
        <mxCell id="FzAoJsj29OSM4B1aR2w1-157" style="edgeStyle=orthogonalEdgeStyle;rounded=0;orthogonalLoop=1;jettySize=auto;html=1;exitX=0;exitY=0.25;exitDx=0;exitDy=0;endArrow=none;endFill=0;" edge="1" parent="FzAoJsj29OSM4B1aR2w1-80" source="FzAoJsj29OSM4B1aR2w1-85">
          <mxGeometry relative="1" as="geometry">
            <mxPoint x="-14.996161307423392" y="-80" as="targetPoint" />
          </mxGeometry>
        </mxCell>
        <mxCell id="FzAoJsj29OSM4B1aR2w1-85" value="&lt;b&gt;MealAdd&lt;/b&gt;" style="html=1;dropTarget=0;whiteSpace=wrap;" vertex="1" parent="FzAoJsj29OSM4B1aR2w1-80">
          <mxGeometry x="55.67383869257662" width="170" height="80" as="geometry" />
        </mxCell>
        <mxCell id="FzAoJsj29OSM4B1aR2w1-86" value="" style="shape=module;jettyWidth=8;jettyHeight=4;" vertex="1" parent="FzAoJsj29OSM4B1aR2w1-85">
          <mxGeometry x="1" width="20" height="20" relative="1" as="geometry">
            <mxPoint x="-27" y="7" as="offset" />
          </mxGeometry>
        </mxCell>
        <mxCell id="FzAoJsj29OSM4B1aR2w1-90" style="rounded=0;orthogonalLoop=1;jettySize=auto;html=1;exitX=0;exitY=0.5;exitDx=0;exitDy=0;exitPerimeter=0;entryX=0;entryY=0.5;entryDx=0;entryDy=0;dashed=1;dashPattern=8 8;" edge="1" parent="1" source="FzAoJsj29OSM4B1aR2w1-47" target="FzAoJsj29OSM4B1aR2w1-87">
          <mxGeometry relative="1" as="geometry" />
        </mxCell>
        <mxCell id="FzAoJsj29OSM4B1aR2w1-91" style="rounded=0;orthogonalLoop=1;jettySize=auto;html=1;exitX=0;exitY=0.5;exitDx=0;exitDy=0;exitPerimeter=0;entryX=0;entryY=0.5;entryDx=0;entryDy=0;dashed=1;dashPattern=8 8;" edge="1" parent="1" source="FzAoJsj29OSM4B1aR2w1-40" target="FzAoJsj29OSM4B1aR2w1-87">
          <mxGeometry relative="1" as="geometry">
            <mxPoint x="576" y="-1320" as="sourcePoint" />
            <mxPoint x="650" y="-1210" as="targetPoint" />
          </mxGeometry>
        </mxCell>
        <mxCell id="FzAoJsj29OSM4B1aR2w1-92" style="rounded=0;orthogonalLoop=1;jettySize=auto;html=1;exitX=0;exitY=0.5;exitDx=0;exitDy=0;exitPerimeter=0;dashed=1;dashPattern=8 8;" edge="1" parent="1" source="FzAoJsj29OSM4B1aR2w1-33">
          <mxGeometry relative="1" as="geometry">
            <mxPoint x="576" y="-1210" as="sourcePoint" />
            <mxPoint x="640" y="-1220" as="targetPoint" />
          </mxGeometry>
        </mxCell>
        <mxCell id="FzAoJsj29OSM4B1aR2w1-94" value="" style="group" vertex="1" connectable="0" parent="1">
          <mxGeometry x="510.00000000000006" y="-840" width="55" height="20" as="geometry" />
        </mxCell>
        <mxCell id="FzAoJsj29OSM4B1aR2w1-95" value="" style="shape=requiredInterface;html=1;verticalLabelPosition=bottom;sketch=0;rotation=-180;" vertex="1" parent="FzAoJsj29OSM4B1aR2w1-94">
          <mxGeometry x="46" width="9" height="20" as="geometry" />
        </mxCell>
        <mxCell id="FzAoJsj29OSM4B1aR2w1-96" value="" style="rounded=0;orthogonalLoop=1;jettySize=auto;html=1;endArrow=none;endFill=0;entryX=1;entryY=0.5;entryDx=0;entryDy=0;" edge="1" parent="FzAoJsj29OSM4B1aR2w1-94">
          <mxGeometry relative="1" as="geometry">
            <mxPoint x="46" y="10.5" as="sourcePoint" />
            <mxPoint y="9.5" as="targetPoint" />
          </mxGeometry>
        </mxCell>
        <mxCell id="FzAoJsj29OSM4B1aR2w1-97" value="&lt;b style=&quot;border-color: var(--border-color);&quot;&gt;Predict&lt;/b&gt;" style="html=1;dropTarget=0;whiteSpace=wrap;" vertex="1" parent="1">
          <mxGeometry x="680" y="-740" width="170" height="80" as="geometry" />
        </mxCell>
        <mxCell id="FzAoJsj29OSM4B1aR2w1-98" value="" style="shape=module;jettyWidth=8;jettyHeight=4;" vertex="1" parent="FzAoJsj29OSM4B1aR2w1-97">
          <mxGeometry x="1" width="20" height="20" relative="1" as="geometry">
            <mxPoint x="-27" y="7" as="offset" />
          </mxGeometry>
        </mxCell>
        <mxCell id="FzAoJsj29OSM4B1aR2w1-99" value="" style="group" vertex="1" connectable="0" parent="1">
          <mxGeometry x="510" y="-780" width="55" height="20" as="geometry" />
        </mxCell>
        <mxCell id="FzAoJsj29OSM4B1aR2w1-100" value="" style="shape=requiredInterface;html=1;verticalLabelPosition=bottom;sketch=0;rotation=-180;" vertex="1" parent="FzAoJsj29OSM4B1aR2w1-99">
          <mxGeometry x="46" width="9" height="20" as="geometry" />
        </mxCell>
        <mxCell id="FzAoJsj29OSM4B1aR2w1-101" value="" style="rounded=0;orthogonalLoop=1;jettySize=auto;html=1;endArrow=none;endFill=0;entryX=1;entryY=0.5;entryDx=0;entryDy=0;" edge="1" parent="FzAoJsj29OSM4B1aR2w1-99">
          <mxGeometry relative="1" as="geometry">
            <mxPoint x="46" y="10.5" as="sourcePoint" />
            <mxPoint y="9.5" as="targetPoint" />
          </mxGeometry>
        </mxCell>
        <mxCell id="FzAoJsj29OSM4B1aR2w1-102" value="&lt;font style=&quot;font-size: 14px;&quot;&gt;IContent&lt;/font&gt;" style="text;html=1;strokeColor=none;fillColor=none;align=center;verticalAlign=middle;whiteSpace=wrap;rounded=0;" vertex="1" parent="1">
          <mxGeometry x="193.5" y="-907.5" width="60" height="30" as="geometry" />
        </mxCell>
        <mxCell id="FzAoJsj29OSM4B1aR2w1-103" value="&lt;font style=&quot;font-size: 14px;&quot;&gt;IUserController&lt;/font&gt;" style="text;html=1;strokeColor=none;fillColor=none;align=center;verticalAlign=middle;whiteSpace=wrap;rounded=0;" vertex="1" parent="1">
          <mxGeometry x="610" y="-1210" width="60" height="30" as="geometry" />
        </mxCell>
        <mxCell id="FzAoJsj29OSM4B1aR2w1-104" value="" style="group" vertex="1" connectable="0" parent="1">
          <mxGeometry x="640" y="-1227.5" width="15" height="15" as="geometry" />
        </mxCell>
        <mxCell id="FzAoJsj29OSM4B1aR2w1-87" value="" style="ellipse;whiteSpace=wrap;html=1;aspect=fixed;" vertex="1" parent="FzAoJsj29OSM4B1aR2w1-104">
          <mxGeometry width="15" height="15" as="geometry" />
        </mxCell>
        <mxCell id="FzAoJsj29OSM4B1aR2w1-89" style="edgeStyle=orthogonalEdgeStyle;rounded=0;orthogonalLoop=1;jettySize=auto;html=1;exitX=1;exitY=0.5;exitDx=0;exitDy=0;entryX=0;entryY=0.5;entryDx=0;entryDy=0;endArrow=none;endFill=0;" edge="1" parent="1" source="FzAoJsj29OSM4B1aR2w1-87" target="MNQ1sqPUqFNWWSK-w_gH-36">
          <mxGeometry relative="1" as="geometry" />
        </mxCell>
        <mxCell id="FzAoJsj29OSM4B1aR2w1-110" value="" style="group" vertex="1" connectable="0" parent="1">
          <mxGeometry x="620" y="-815" width="15" height="15" as="geometry" />
        </mxCell>
        <mxCell id="FzAoJsj29OSM4B1aR2w1-111" value="" style="ellipse;whiteSpace=wrap;html=1;aspect=fixed;" vertex="1" parent="FzAoJsj29OSM4B1aR2w1-110">
          <mxGeometry width="15" height="15" as="geometry" />
        </mxCell>
        <mxCell id="FzAoJsj29OSM4B1aR2w1-112" style="edgeStyle=orthogonalEdgeStyle;rounded=0;orthogonalLoop=1;jettySize=auto;html=1;exitX=1;exitY=0.5;exitDx=0;exitDy=0;entryX=0;entryY=0.5;entryDx=0;entryDy=0;endArrow=none;endFill=0;" edge="1" parent="1" source="FzAoJsj29OSM4B1aR2w1-111">
          <mxGeometry relative="1" as="geometry">
            <mxPoint x="680" y="-807.5" as="targetPoint" />
          </mxGeometry>
        </mxCell>
        <mxCell id="FzAoJsj29OSM4B1aR2w1-113" value="" style="group" vertex="1" connectable="0" parent="1">
          <mxGeometry x="620" y="-705" width="15" height="15" as="geometry" />
        </mxCell>
        <mxCell id="FzAoJsj29OSM4B1aR2w1-114" value="" style="ellipse;whiteSpace=wrap;html=1;aspect=fixed;" vertex="1" parent="FzAoJsj29OSM4B1aR2w1-113">
          <mxGeometry width="15" height="15" as="geometry" />
        </mxCell>
        <mxCell id="FzAoJsj29OSM4B1aR2w1-115" style="edgeStyle=orthogonalEdgeStyle;rounded=0;orthogonalLoop=1;jettySize=auto;html=1;exitX=1;exitY=0.5;exitDx=0;exitDy=0;entryX=0;entryY=0.5;entryDx=0;entryDy=0;endArrow=none;endFill=0;" edge="1" parent="1" source="FzAoJsj29OSM4B1aR2w1-114">
          <mxGeometry relative="1" as="geometry">
            <mxPoint x="680" y="-697.5" as="targetPoint" />
          </mxGeometry>
        </mxCell>
        <mxCell id="FzAoJsj29OSM4B1aR2w1-120" value="" style="group" vertex="1" connectable="0" parent="1">
          <mxGeometry x="620" y="-580" width="15" height="15" as="geometry" />
        </mxCell>
        <mxCell id="FzAoJsj29OSM4B1aR2w1-121" value="" style="ellipse;whiteSpace=wrap;html=1;aspect=fixed;" vertex="1" parent="FzAoJsj29OSM4B1aR2w1-120">
          <mxGeometry width="15" height="15" as="geometry" />
        </mxCell>
        <mxCell id="FzAoJsj29OSM4B1aR2w1-122" style="rounded=0;orthogonalLoop=1;jettySize=auto;html=1;exitX=1;exitY=0.5;exitDx=0;exitDy=0;entryX=0;entryY=0.5;entryDx=0;entryDy=0;endArrow=none;endFill=0;" edge="1" parent="1" source="FzAoJsj29OSM4B1aR2w1-121">
          <mxGeometry relative="1" as="geometry">
            <mxPoint x="680" y="-572.5" as="targetPoint" />
          </mxGeometry>
        </mxCell>
        <mxCell id="FzAoJsj29OSM4B1aR2w1-125" style="rounded=0;orthogonalLoop=1;jettySize=auto;html=1;exitX=0;exitY=0.5;exitDx=0;exitDy=0;exitPerimeter=0;dashed=1;dashPattern=8 8;" edge="1" parent="1" source="FzAoJsj29OSM4B1aR2w1-61">
          <mxGeometry relative="1" as="geometry">
            <mxPoint x="620" y="-580" as="targetPoint" />
          </mxGeometry>
        </mxCell>
        <mxCell id="FzAoJsj29OSM4B1aR2w1-126" style="rounded=0;orthogonalLoop=1;jettySize=auto;html=1;exitX=0;exitY=0.5;exitDx=0;exitDy=0;exitPerimeter=0;dashed=1;dashPattern=8 8;entryX=0;entryY=0.5;entryDx=0;entryDy=0;" edge="1" parent="1" source="FzAoJsj29OSM4B1aR2w1-68" target="FzAoJsj29OSM4B1aR2w1-121">
          <mxGeometry relative="1" as="geometry">
            <mxPoint x="576" y="-690" as="sourcePoint" />
            <mxPoint x="620" y="-590" as="targetPoint" />
          </mxGeometry>
        </mxCell>
        <mxCell id="FzAoJsj29OSM4B1aR2w1-127" style="rounded=0;orthogonalLoop=1;jettySize=auto;html=1;exitX=0;exitY=0.5;exitDx=0;exitDy=0;exitPerimeter=0;dashed=1;dashPattern=8 8;entryX=0;entryY=0.5;entryDx=0;entryDy=0;" edge="1" parent="1" source="FzAoJsj29OSM4B1aR2w1-75" target="FzAoJsj29OSM4B1aR2w1-121">
          <mxGeometry relative="1" as="geometry">
            <mxPoint x="586" y="-680" as="sourcePoint" />
            <mxPoint x="620" y="-580" as="targetPoint" />
          </mxGeometry>
        </mxCell>
        <mxCell id="FzAoJsj29OSM4B1aR2w1-128" style="rounded=0;orthogonalLoop=1;jettySize=auto;html=1;exitX=0;exitY=0.5;exitDx=0;exitDy=0;exitPerimeter=0;dashed=1;dashPattern=8 8;entryX=0;entryY=1;entryDx=0;entryDy=0;" edge="1" parent="1" source="FzAoJsj29OSM4B1aR2w1-82" target="FzAoJsj29OSM4B1aR2w1-121">
          <mxGeometry relative="1" as="geometry">
            <mxPoint x="596" y="-670" as="sourcePoint" />
            <mxPoint x="630" y="-580" as="targetPoint" />
          </mxGeometry>
        </mxCell>
        <mxCell id="FzAoJsj29OSM4B1aR2w1-129" value="&lt;font style=&quot;font-size: 14px;&quot;&gt;IMealController&lt;/font&gt;" style="text;html=1;strokeColor=none;fillColor=none;align=center;verticalAlign=middle;whiteSpace=wrap;rounded=0;" vertex="1" parent="1">
          <mxGeometry x="620" y="-550" width="60" height="30" as="geometry" />
        </mxCell>
        <mxCell id="FzAoJsj29OSM4B1aR2w1-131" value="" style="group" vertex="1" connectable="0" parent="1">
          <mxGeometry x="510.00000000000006" y="-430" width="55" height="20" as="geometry" />
        </mxCell>
        <mxCell id="FzAoJsj29OSM4B1aR2w1-132" value="" style="shape=requiredInterface;html=1;verticalLabelPosition=bottom;sketch=0;rotation=-180;" vertex="1" parent="FzAoJsj29OSM4B1aR2w1-131">
          <mxGeometry x="46" width="9" height="20" as="geometry" />
        </mxCell>
        <mxCell id="FzAoJsj29OSM4B1aR2w1-133" value="" style="rounded=0;orthogonalLoop=1;jettySize=auto;html=1;endArrow=none;endFill=0;entryX=1;entryY=0.5;entryDx=0;entryDy=0;" edge="1" parent="FzAoJsj29OSM4B1aR2w1-131">
          <mxGeometry relative="1" as="geometry">
            <mxPoint x="46" y="10.5" as="sourcePoint" />
            <mxPoint y="9.5" as="targetPoint" />
          </mxGeometry>
        </mxCell>
        <mxCell id="FzAoJsj29OSM4B1aR2w1-134" style="rounded=0;orthogonalLoop=1;jettySize=auto;html=1;exitX=0;exitY=0.5;exitDx=0;exitDy=0;exitPerimeter=0;dashed=1;dashPattern=8 8;entryX=0;entryY=0.5;entryDx=0;entryDy=0;" edge="1" parent="1" source="FzAoJsj29OSM4B1aR2w1-132" target="FzAoJsj29OSM4B1aR2w1-135">
          <mxGeometry relative="1" as="geometry">
            <mxPoint x="576" y="-370" as="sourcePoint" />
            <mxPoint x="632" y="-557" as="targetPoint" />
          </mxGeometry>
        </mxCell>
        <mxCell id="FzAoJsj29OSM4B1aR2w1-135" value="" style="ellipse;whiteSpace=wrap;html=1;aspect=fixed;" vertex="1" parent="1">
          <mxGeometry x="620" y="-620" width="15" height="15" as="geometry" />
        </mxCell>
        <mxCell id="FzAoJsj29OSM4B1aR2w1-136" style="rounded=0;orthogonalLoop=1;jettySize=auto;html=1;exitX=1;exitY=0.5;exitDx=0;exitDy=0;entryX=0;entryY=0.5;entryDx=0;entryDy=0;endArrow=none;endFill=0;" edge="1" parent="1" source="FzAoJsj29OSM4B1aR2w1-135">
          <mxGeometry relative="1" as="geometry">
            <mxPoint x="680" y="-612.5" as="targetPoint" />
          </mxGeometry>
        </mxCell>
        <mxCell id="FzAoJsj29OSM4B1aR2w1-137" value="&lt;font style=&quot;font-size: 14px;&quot;&gt;IFoodController&lt;/font&gt;" style="text;html=1;strokeColor=none;fillColor=none;align=center;verticalAlign=middle;whiteSpace=wrap;rounded=0;" vertex="1" parent="1">
          <mxGeometry x="610" y="-650" width="60" height="30" as="geometry" />
        </mxCell>
        <mxCell id="FzAoJsj29OSM4B1aR2w1-138" style="rounded=0;orthogonalLoop=1;jettySize=auto;html=1;exitX=0;exitY=0.5;exitDx=0;exitDy=0;exitPerimeter=0;dashed=1;dashPattern=8 8;" edge="1" parent="1" source="FzAoJsj29OSM4B1aR2w1-100">
          <mxGeometry relative="1" as="geometry">
            <mxPoint x="576" y="-690" as="sourcePoint" />
            <mxPoint x="620" y="-580" as="targetPoint" />
          </mxGeometry>
        </mxCell>
        <mxCell id="FzAoJsj29OSM4B1aR2w1-140" style="rounded=0;orthogonalLoop=1;jettySize=auto;html=1;exitX=0;exitY=0.5;exitDx=0;exitDy=0;exitPerimeter=0;dashed=1;dashPattern=8 8;entryX=0;entryY=0.5;entryDx=0;entryDy=0;" edge="1" parent="1" source="FzAoJsj29OSM4B1aR2w1-54" target="FzAoJsj29OSM4B1aR2w1-114">
          <mxGeometry relative="1" as="geometry">
            <mxPoint x="575" y="-760" as="sourcePoint" />
            <mxPoint x="630" y="-570" as="targetPoint" />
          </mxGeometry>
        </mxCell>
        <mxCell id="FzAoJsj29OSM4B1aR2w1-141" value="&lt;font style=&quot;font-size: 14px;&quot;&gt;IPredictController&lt;/font&gt;" style="text;html=1;strokeColor=none;fillColor=none;align=center;verticalAlign=middle;whiteSpace=wrap;rounded=0;" vertex="1" parent="1">
          <mxGeometry x="610" y="-740" width="60" height="30" as="geometry" />
        </mxCell>
        <mxCell id="FzAoJsj29OSM4B1aR2w1-142" value="&lt;font style=&quot;font-size: 14px;&quot;&gt;IExerciseController&lt;/font&gt;" style="text;html=1;strokeColor=none;fillColor=none;align=center;verticalAlign=middle;whiteSpace=wrap;rounded=0;" vertex="1" parent="1">
          <mxGeometry x="600" y="-845" width="60" height="30" as="geometry" />
        </mxCell>
        <mxCell id="FzAoJsj29OSM4B1aR2w1-143" style="rounded=0;orthogonalLoop=1;jettySize=auto;html=1;exitX=0;exitY=0.5;exitDx=0;exitDy=0;exitPerimeter=0;dashed=1;dashPattern=8 8;entryX=0;entryY=0.5;entryDx=0;entryDy=0;" edge="1" parent="1" source="FzAoJsj29OSM4B1aR2w1-95" target="FzAoJsj29OSM4B1aR2w1-111">
          <mxGeometry relative="1" as="geometry">
            <mxPoint x="576" y="-790" as="sourcePoint" />
            <mxPoint x="630" y="-687" as="targetPoint" />
          </mxGeometry>
        </mxCell>
        <mxCell id="FzAoJsj29OSM4B1aR2w1-144" style="rounded=0;orthogonalLoop=1;jettySize=auto;html=1;exitX=0;exitY=0.5;exitDx=0;exitDy=0;exitPerimeter=0;dashed=1;dashPattern=8 8;entryX=0;entryY=0;entryDx=0;entryDy=0;" edge="1" parent="1" source="FzAoJsj29OSM4B1aR2w1-5" target="FzAoJsj29OSM4B1aR2w1-111">
          <mxGeometry relative="1" as="geometry">
            <mxPoint x="575" y="-820" as="sourcePoint" />
            <mxPoint x="630" y="-797" as="targetPoint" />
          </mxGeometry>
        </mxCell>
        <mxCell id="FzAoJsj29OSM4B1aR2w1-145" style="rounded=0;orthogonalLoop=1;jettySize=auto;html=1;exitX=0;exitY=0.5;exitDx=0;exitDy=0;exitPerimeter=0;dashed=1;dashPattern=8 8;entryX=0.5;entryY=0;entryDx=0;entryDy=0;" edge="1" parent="1" source="FzAoJsj29OSM4B1aR2w1-23" target="FzAoJsj29OSM4B1aR2w1-111">
          <mxGeometry relative="1" as="geometry">
            <mxPoint x="585" y="-810" as="sourcePoint" />
            <mxPoint x="640" y="-787" as="targetPoint" />
          </mxGeometry>
        </mxCell>
        <mxCell id="FzAoJsj29OSM4B1aR2w1-146" style="rounded=0;orthogonalLoop=1;jettySize=auto;html=1;exitX=1;exitY=0.5;exitDx=0;exitDy=0;entryX=0;entryY=0;entryDx=0;entryDy=0;" edge="1" parent="1" source="MNQ1sqPUqFNWWSK-w_gH-36" target="MNQ1sqPUqFNWWSK-w_gH-42">
          <mxGeometry relative="1" as="geometry" />
        </mxCell>
        <mxCell id="FzAoJsj29OSM4B1aR2w1-147" style="rounded=0;orthogonalLoop=1;jettySize=auto;html=1;exitX=1;exitY=0.5;exitDx=0;exitDy=0;entryX=-0.015;entryY=0.441;entryDx=0;entryDy=0;entryPerimeter=0;" edge="1" parent="1" source="MNQ1sqPUqFNWWSK-w_gH-40" target="MNQ1sqPUqFNWWSK-w_gH-42">
          <mxGeometry relative="1" as="geometry">
            <mxPoint x="860" y="-992.5" as="sourcePoint" />
            <mxPoint x="940" y="-607.5" as="targetPoint" />
          </mxGeometry>
        </mxCell>
        <mxCell id="FzAoJsj29OSM4B1aR2w1-148" style="rounded=0;orthogonalLoop=1;jettySize=auto;html=1;exitX=1.009;exitY=0.45;exitDx=0;exitDy=0;exitPerimeter=0;entryX=0;entryY=1;entryDx=0;entryDy=0;" edge="1" parent="1" source="MNQ1sqPUqFNWWSK-w_gH-38" target="MNQ1sqPUqFNWWSK-w_gH-42">
          <mxGeometry relative="1" as="geometry">
            <mxPoint x="920" y="-605" as="sourcePoint" />
            <mxPoint x="930" y="-640" as="targetPoint" />
          </mxGeometry>
        </mxCell>
        <mxCell id="FzAoJsj29OSM4B1aR2w1-149" value="" style="group;rotation=-180;" vertex="1" connectable="0" parent="1">
          <mxGeometry x="230.00000000000006" y="-840" width="55" height="20" as="geometry" />
        </mxCell>
        <mxCell id="FzAoJsj29OSM4B1aR2w1-150" value="" style="shape=requiredInterface;html=1;verticalLabelPosition=bottom;sketch=0;rotation=-360;" vertex="1" parent="FzAoJsj29OSM4B1aR2w1-149">
          <mxGeometry width="9" height="20" as="geometry" />
        </mxCell>
        <mxCell id="FzAoJsj29OSM4B1aR2w1-151" value="" style="rounded=0;orthogonalLoop=1;jettySize=auto;html=1;endArrow=none;endFill=0;" edge="1" parent="FzAoJsj29OSM4B1aR2w1-149">
          <mxGeometry relative="1" as="geometry">
            <mxPoint x="9" y="9" as="sourcePoint" />
            <mxPoint x="39.99999999999994" y="11" as="targetPoint" />
          </mxGeometry>
        </mxCell>
        <mxCell id="FzAoJsj29OSM4B1aR2w1-152" value="&lt;font style=&quot;font-size: 14px;&quot;&gt;IMainFrame&lt;/font&gt;" style="text;html=1;strokeColor=none;fillColor=none;align=center;verticalAlign=middle;whiteSpace=wrap;rounded=0;" vertex="1" parent="1">
          <mxGeometry x="180" y="-815" width="60" height="30" as="geometry" />
        </mxCell>
      </root>
    </mxGraphModel>
  </diagram>
</mxfile>
